<svg width="19" height="19" viewBox="0 0 19 19" fill="none" xmlns="http://www.w3.org/2000/svg">
<path d="M6.12218 12.6564H4.52713C2.12152 12.6564 0.395752 11.183 0.395752 9.02537H8.97226C9.41678 9.02537 9.70443 9.34114 9.70443 9.78844V18.4188C7.5603 18.4188 6.12218 16.6822 6.12218 14.2615V12.6564ZM10.3581 8.36757H8.7631C6.3575 8.36757 4.63172 6.92039 4.63172 4.76285H13.2082C13.6528 4.76285 13.9665 5.05226 13.9665 5.49956V14.1299C11.8224 14.1299 10.3581 12.3933 10.3581 9.97258V8.36757ZM14.6202 4.10505H13.0252C10.6196 4.10505 8.89382 2.63156 8.89382 0.473969H17.4704C17.9149 0.473969 18.2025 0.789692 18.2025 1.21069V9.84105C16.0584 9.84105 14.6202 8.10446 14.6202 5.68376V4.10505Z" fill="#1868DB"/>
</svg>
