<svg id="Layer_1" data-name="Layer 1" xmlns="http://www.w3.org/2000/svg" viewBox="0 0 439.86 439.86"><defs><style>.cls-1{fill:#fff;}.cls-2{fill:#f98012;}.cls-3{fill:#333;}</style></defs><circle class="cls-1" cx="219.93" cy="219.93" r="219.93"/><path class="cls-2" d="M296,319V220.6q0-30.85-25.49-30.86T245,220.6V319H194.89V220.6q0-30.85-25.06-30.86-25.5,0-25.49,30.86V319H94.24V214.79q0-32.21,22.36-48.75,19.69-14.76,53.23-14.77,34,0,50.1,17.45,13.86-17.44,50.55-17.45,33.54,0,53.22,14.77,22.37,16.54,22.36,48.75V319Z"/><path class="cls-3" d="M191.23,144l50.16-36.5-.64-2.22C155.86,114,106.16,125.37,32.94,168.79L33.6,171l7.5-.24c-1.93,16.66-.69,37.54-.68,37.8l.17,5.83c-8.86,25.1.06,45.16,7.64,63.53.05-22.7,1-41.18-5.44-64.67-.18-3.44-1.33-27.09.49-42.56l9.46-.3c13.81.48,28.09,1.15,41.85,1.2a118.39,118.39,0,0,0,1.07,26.8h0l-.33,2.92c47.28,16,92.16,1.39,115.76-40l-1.39-1.9C205.84,155.09,198,148.73,191.23,144Z"/></svg>